<svg xmlns="http://www.w3.org/2000/svg" version="1.1" xmlns:xlink="http://www.w3.org/1999/xlink" xmlns:svgjs="http://svgjs.com/svgjs" width="762" height="762"><svg xmlns="http://www.w3.org/2000/svg" viewBox="0 0 762 762" fill="none" shape-rendering="auto"><desc>"Adventurer" by "Lisa Wischofsky", licensed under "CC BY 4.0". / Remix of the original. - Created with dicebear.com</desc><metadata xmlns:dc="http://purl.org/dc/elements/1.1/" xmlns:cc="http://creativecommons.org/ns#" xmlns:rdf="http://www.w3.org/1999/02/22-rdf-syntax-ns#"><rdf:rdf><cc:work><dc:title>Adventurer</dc:title><dc:creator><cc:agent rdf:about="https://www.instagram.com/lischi_art/"><dc:title>Lisa Wischofsky</dc:title></cc:agent></dc:creator><dc:source>https://www.figma.com/community/file/1184595184137881796</dc:source><cc:license rdf:resource="https://creativecommons.org/licenses/by/4.0/"></cc:license></cc:work></rdf:rdf></metadata><mask id="SvgjsMask1000"><rect width="762" height="762" rx="0" ry="0" x="0" y="0" fill="#fff"></rect></mask><g mask="url(#viewboxMask)"><path d="M396 164.8a224.8 224.8 0 0 1 104.8 42.4c6.2 4.9 12.5 9.4 18 15a225.4 225.4 0 0 1 71.8 149 58.5 58.5 0 0 1 50.9 42.2 71 71 0 0 1-27.6 76.5c-11 7.7-24.5 12-38 11.7-5 0-10-1.6-15-1.8-1.9 2.2-3.3 4.9-4.8 7.3A223.3 223.3 0 0 1 389 609.8c-11 .7-21.9 2-33 .7a223.7 223.7 0 0 1-178.8-342.3A223.4 223.4 0 0 1 352 163.5c14.6-1.4 29.4-.3 44 1.3Z" fill="#000"></path><path fill-rule="evenodd" clip-rule="evenodd" d="M498.8 213.2A216 216 0 0 0 363 169c-13-.2-26.2 1.6-39 4a218 218 0 0 0-113.6 365.5 218.5 218.5 0 0 0 260.4 40.2c35-18.8 64.2-47.3 84.4-81.5l-3-1.6c-2.8-1.4-5.7-3-8-5-2.2-2-.3-5.8 2.7-4.7 1.5.7 3 1.6 4.4 2.4a55 55 0 0 0 59.6-3.6 64.5 64.5 0 0 0 25-69.8 53.1 53.1 0 0 0-24-31 52.6 52.6 0 0 0-47-2.8c-1.6.8-3.4 1.5-5 1.3-2.5-.2-2.8-4.2-.6-5.2 8-4 16.5-5.6 25.4-6.4a217 217 0 0 0-72-146.4c-4.4-4-8.7-8.1-13.9-11.3Zm107.6 196.2c2-1.2 1.3-5.1-1.4-5-2 0-4.2.8-6.2 1.6l-1.4.4a95.1 95.1 0 0 0-25.5 12.4c-2.2 2-2.2 4.4.1 6.2a92 92 0 0 0 5.2 2.8 36 36 0 0 1 13 9.2c-.2 1.9-2 3.4-3.4 4.5l-.2.2c-3.9 3-8.8 5-13.6 7-2.5 1-4.9 2-7.1 3.1-1.7.8-2.6 2.2-1.6 3.9 1 2 3.2 1.1 5 .5l.6-.2 5.4-2.3c5.4-2.3 11-4.5 15.4-8 2.7-2.1 5.1-5.1 5.4-8.7-.5-3.4-2.7-5.7-5.3-7.8a83 83 0 0 0-11.6-7.2l-1.1-.6c5.4-3 10.8-5.6 16.6-7.7l5-1.7a52 52 0 0 0 6.7-2.6Z" fill="#f2d3b1"></path><g transform="translate(-161 -83)"><path d="M556 424a65.3 65.3 0 0 1 65.5 73.8c-.4 2.7-3.2 3.6-5.5 3.8-23 1-45.4 3.7-68 6.3-13.2 1-26.2 2.8-39.2 4.6-4.6.5-8.6 1.7-13.1 0A65 65 0 0 1 556 424Z" fill="#000"></path><path d="M566.2 430.5a60 60 0 0 1 50.2 60.5c-.2 1.4.1 3.5-.7 4.6-4.2.7-8.5.7-12.7 1.1-18.4 1.2-36.6 3.4-54.9 5.6a31 31 0 0 0 2.6-10.3 24.8 24.8 0 0 0-39.5-20.8 24.4 24.4 0 0 0-9.8 20.8c0 6 2.6 11.2 6.4 15.7l-7.3.8a59.2 59.2 0 0 1 65.7-78Z" fill="#fff"></path><path d="M416 455a55 55 0 0 1 23.8 62c-4 1.1-7.7.7-11.8.7-25.4-.3-50.6-.3-76 1.4-5.6-.3-13 1.8-17.8-1.4a55.2 55.2 0 0 1 81.7-62.7Z" fill="#000"></path><path d="M410.4 458.5c19 10.1 29.7 32.9 24.7 53.9l-5.7.1a24.4 24.4 0 0 0 2.8-15.5 22.4 22.4 0 0 0-15.4-17.7 22 22 0 0 0-28.5 20.7c-.3 4.4 1 8.2 2.8 12.1-15.4.1-30.7 1-46.1 2-1.8-.2-5.8.5-6.1-2a49 49 0 0 1 71.6-53.6Z" fill="#fff"></path></g><g transform="translate(-161 -83)"><path d="M607 397.6c1.5-.4 3.2.6 4.7 1 0 1.2-.1 2.4-.4 3.6-1.6 1.5-3.6 2.6-5.4 3.8a803.6 803.6 0 0 1-70.4 40.6A289.9 289.9 0 0 1 500 462a50 50 0 0 1-21 3.5c-3.3-.4-6.2-3-6.2-6.5 0-4.2 3-8.6 5-12.1 1.3-2.7 4.5-3 7-4.1l111.7-41.5c3.5-1.2 7-2.8 10.5-3.7ZM339 432.6l90 18c2.3.4 4.6.1 6.9.5 2.4 2.3 3.6 6.2 4.5 9.4 1.2 4-.1 8.8-4 11-4 2.6-9.8 2.1-14.4 1.9-8.8-1-17.4-3.8-25.7-6.8a418 418 0 0 1-57-27c-1.6-.9-3.6-1.9-4.8-3.5-.3-2.9 1.9-4.1 4.5-3.5Z" fill="#000"></path></g><g transform="translate(-161 -83)"><path d="M505 609.6c4.7 1.3 9 4.7 12.2 8.2 1.4 1.7 3.6 3.9 3 6.2-.4 2.5-3.7 3-5 .8a27.5 27.5 0 0 0-9.4-8.5c-2.3-1.5-6.8-.6-6.7-4.2.5-3 3.6-2.9 6-2.5ZM498 623c5 1.5 8.4 5.8 8.8 11 1.3 13.2-9.4 25.8-21.8 29.2-12.4 3.7-28.8-1-35-13.2-2.5-4.2-3.8-9.2-2-14 1.8-4 5.8-5.6 10-6 5-.6 9.5 1 13.9 3.5 3.8-4 7.7-7.6 12.9-9.8 4-1.8 9-2 13.2-.7Z" fill="#000"></path><path d="M499 630c3.2 3.5 2.2 9.6.4 13.5a25.5 25.5 0 0 1-26 15c-7.2-1.2-14.2-4.1-18.1-10.8-1.4-2.6-3.4-6.6-2-9.4 2.2-3.8 8.7-3.2 12.2-1.8 2.8.7 5.6 4 8.4 3.5 3.7-3.5 6.5-7.4 11.2-9.8 4.3-2.4 9.6-3.3 13.8-.1Z" fill="#8F2E45"></path></g><g transform="translate(-161 -83)"></g><g transform="translate(-161 -83)"></g><g transform="translate(-161 -83)"><g fill="#000"><path d="M558 248c37.7 5 74 19.9 104.4 42.7 4 3.3 8.3 6.2 12.2 9.7A223.6 223.6 0 0 1 749.7 438c1 6.7 2 13.3 1.5 20.2-4.1 2.9-8.2 1.6-13 2.5-5.8.7-10.8 3.1-16.2 5-2.8.1-2.7-2-3.6-4 7.5-5.3 18.2-7 27.3-7.8a217.8 217.8 0 0 0-73.1-147.4c-6-6.1-13-10.2-19.7-15.4-32.7-23-72-36.5-111.9-38.9-12.8-.2-26.1-.6-38.8 1.2a218.3 218.3 0 0 0-143 78.6l-4-1.6c.6-1.9.7-3.6 2-5.2A223.6 223.6 0 0 1 504 247.3l12.5-1c14-1 27.7 0 41.5 1.7Z"></path><path opacity=".1" d="M541 252.2c40 2.4 79.2 16 112 39 6.6 5 13.7 9.2 19.5 15.3A217.8 217.8 0 0 1 745.7 454c-9 .9-19.8 2.5-27.3 7.9-3 2.2-6.2 4.5-9.8 5.8-1.5.7-3.3-1.2-3.2-2.7.3-3.5 1.5-6.9 2-10.4 2.2-13.9.6-28.4-4.6-41.4-5.5.4-10.7.7-16-1-9.8-2.9-17.5-9.2-24.4-16.5-8.5-9-15.5-19.8-21.2-30.8-9.7-18.7-16.4-39-20.8-59.6a180 180 0 0 1-35 12.4c-38 10.1-76.3 15.5-115.4 18.8-15 1-30 2-45 2-13.7 0-27.4-.1-41-1.7-8.5-.6-16.5-2.9-24.8-4.7a217.9 217.9 0 0 1 143-78.6c12.7-1.8 26-1.4 38.8-1.2Z"></path></g></g><g transform="translate(-161 -83)"></g></g></svg><style>@media (prefers-color-scheme: light) { :root { filter: none; } }
</style></svg>