<?xml version="1.0" standalone="no"?>
<!DOCTYPE svg PUBLIC "-//W3C//DTD SVG 20010904//EN"
 "http://www.w3.org/TR/2001/REC-SVG-20010904/DTD/svg10.dtd">
<svg version="1.0" xmlns="http://www.w3.org/2000/svg"
 width="700.000000pt" height="700.000000pt" viewBox="0 0 700.000000 700.000000"
 preserveAspectRatio="xMidYMid meet">
<metadata>
Created by potrace 1.14, written by Peter Selinger 2001-2017
</metadata>
<g transform="translate(0.000000,700.000000) scale(0.100000,-0.100000)"
fill="#000000" stroke="none">
<path d="M3288 5505 c-2 -2 -43 -6 -92 -9 -453 -35 -902 -237 -1243 -560 -282
-267 -511 -671 -589 -1038 -6 -28 -22 -113 -28 -150 -20 -119 -26 -352 -12
-497 31 -336 141 -648 333 -941 42 -63 78 -117 82 -120 3 -3 30 -34 60 -70
210 -254 513 -470 826 -590 33 -12 69 -26 80 -31 74 -31 308 -83 423 -95 32
-3 75 -7 97 -10 45 -6 251 -5 305 0 19 2 64 7 100 11 53 5 156 26 300 60 22 5
170 55 205 68 16 7 81 37 145 68 211 103 366 214 540 389 137 137 175 182 265
318 l69 103 35 -7 c20 -4 73 -8 118 -9 132 -2 281 55 391 151 33 29 122 137
122 148 0 4 10 23 23 44 61 100 87 280 60 418 -43 214 -226 396 -431 427 -19
3 -37 8 -40 12 -7 6 -7 6 -17 95 -4 36 -8 72 -10 80 -1 8 -5 31 -8 50 -37 225
-171 558 -307 759 -293 437 -705 730 -1210 860 -63 17 -135 33 -160 36 -25 3
-52 8 -60 10 -36 9 -364 27 -372 20z"/>
</g>
</svg>
